<svg width="121" height="26" viewBox="0 0 121 26" fill="none" xmlns="http://www.w3.org/2000/svg">
<path d="M41.024 21H33.344V4.92004H40.736C43.88 4.92004 45.776 6.21604 45.776 8.92804C45.776 10.8 44.72 12.072 42.656 12.384V12.576C45.104 12.888 46.352 14.472 46.352 16.584C46.352 19.32 44.408 21 41.024 21ZM35.936 7.24804V11.592H40.496C42.44 11.592 43.208 11.064 43.208 9.43204C43.208 7.77604 42.512 7.24804 40.568 7.24804H35.936ZM35.936 13.752V18.672H40.952C42.896 18.672 43.736 18.12 43.736 16.224C43.736 14.304 42.896 13.752 40.952 13.752H35.936Z" fill="#006979"/>
<path d="M53.4822 21.24C49.5462 21.24 47.6982 18.744 47.6982 15.024C47.6982 11.328 49.9062 8.83204 53.4582 8.83204C56.6742 8.83204 58.9302 10.752 58.9302 14.016C58.9302 14.64 58.8582 15.288 58.7862 15.648H50.1222C50.2182 17.832 51.0102 18.936 53.5062 18.936C55.4982 18.936 56.2662 18.264 56.2662 17.184V16.992H58.8342V17.208C58.8342 19.656 56.6982 21.24 53.4822 21.24ZM53.4102 11.016C51.1542 11.016 50.2902 12.072 50.1462 13.92H56.4582C56.5542 11.88 55.4502 11.016 53.4102 11.016Z" fill="#006979"/>
<path d="M64.3563 21.24C62.2203 21.24 60.5643 20.136 60.5643 18.048C60.5643 16.08 62.0043 15.048 64.5483 14.688L68.7243 14.064V13.416C68.7243 11.64 67.9083 11.112 66.0363 11.112C64.1403 11.112 63.3963 11.712 63.3963 13.296V13.656H60.9003V13.416C60.9003 10.752 62.9883 8.83204 66.1803 8.83204C69.5163 8.83204 71.1963 10.848 71.1963 13.752V21H68.7963V19.128H68.6763C67.9803 20.256 66.6123 21.24 64.3563 21.24ZM63.0843 17.856C63.0843 18.792 63.6843 19.176 65.1963 19.176C66.8763 19.176 68.7243 18.504 68.7243 16.104V15.888L64.9323 16.464C63.5643 16.656 63.0843 16.968 63.0843 17.856Z" fill="#006979"/>
<path d="M78.1182 21.24C74.9982 21.24 73.6062 19.152 73.6062 16.44V9.07204H76.1982V15.984C76.1982 18.12 77.0142 19.008 79.0782 19.008C81.0702 19.008 82.1982 18.144 82.1982 15.792V9.07204H84.7902V21H82.3902V18.624H82.2942C81.7182 19.992 80.4462 21.24 78.1182 21.24Z" fill="#006979"/>
<path d="M92.1937 21C89.5297 21 88.1377 20.016 88.1377 17.328V11.232H86.1457V9.07204H88.1857L88.7377 6.12004H90.7297V9.07204H94.3297V11.232H90.7297V17.208C90.7297 18.456 91.2577 18.672 92.8657 18.672H94.3297V20.784C93.8257 20.904 93.0097 21 92.1937 21Z" fill="#006979"/>
<path d="M98.4382 7.56004H95.8702L95.8462 4.92004H98.4382V7.56004ZM98.4622 21H95.8702V9.00004H98.4622V21Z" fill="#006979"/>
<path d="M103.965 21H101.373V11.232H99.6206V9.07204H101.373C101.421 6.38404 103.029 4.92004 106.053 4.92004H107.013V6.98404H105.573C104.421 6.98404 103.893 7.41604 103.893 8.42404V9.07204H107.013V11.232H103.965V21Z" fill="#006979"/>
<path d="M110.476 25.08C109.828 25.08 109.084 24.984 108.676 24.864V22.752H110.308C111.34 22.752 111.7 22.584 112.084 21.696L112.54 20.688L107.476 9.07204H110.332L112.732 14.856L113.812 17.448H114.004L114.988 14.856L117.172 9.07204H120.028L114.388 22.416C113.5 24.528 112.348 25.08 110.476 25.08Z" fill="#006979"/>
<path d="M13.1924 25H0V0H12.5823C18.0347 0 20.9705 1.90299 20.9705 6.23134C20.9705 9.21642 19.2548 11.1567 15.8614 11.5672V11.9403C19.9792 12.2388 22 14.7761 22 18.1343C22 22.3507 19.026 25 13.1924 25ZM5.71924 5.03731V9.88806H12.201C14.3362 9.88806 15.2513 9.4403 15.2513 7.46269C15.2513 5.44776 14.2981 5.03731 12.201 5.03731H5.71924ZM5.71924 14.4403V19.9627H13.0017C15.0988 19.9627 16.2426 19.5896 16.2426 17.2388C16.2426 14.8134 15.1369 14.4403 13.0017 14.4403H5.71924Z" fill="#006979"/>
</svg>
